<?xml version="1.0" encoding="utf-8"?>
<!-- Generator: Adobe Illustrator 24.1.1, SVG Export Plug-In . SVG Version: 6.00 Build 0)  -->
<svg version="1.1" id="Layer_1" xmlns="http://www.w3.org/2000/svg" xmlns:xlink="http://www.w3.org/1999/xlink" x="0px" y="0px"
	 viewBox="0 0 512 512" style="enable-background:new 0 0 512 512;" xml:space="preserve">
<g>
	<path d="M483.9,142.6C443.8,58,356.5,0,256,0C114.6,0,0,114.6,0,256c0,141.4,114.6,256,256,256c141.4,0,256-114.6,256-256h-51.2
		c0,56.6-22.9,107.7-60,144.8c-37.1,37.1-88.2,60-144.8,60c-56.6,0-107.7-22.9-144.8-60c-37.1-37.1-60-88.2-60-144.8
		c0-56.6,22.9-107.7,60-144.8c37.1-37.1,88.2-60,144.8-60c80.6,0,150,46.5,181.7,113.4L483.9,142.6L483.9,142.6z M460.8,25.6v128
		l-128,0v51.2l179.2,0V25.6H460.8L460.8,25.6z"/>
</g>
</svg>
